<svg width="34" height="34" viewBox="0 0 34 34" fill="none" xmlns="http://www.w3.org/2000/svg">
<g clip-path="url(#clip0)">
<path d="M16.8197 33.3145C25.9473 33.3145 33.3467 25.9151 33.3467 16.7875C33.3467 7.65988 25.9473 0.260498 16.8197 0.260498C7.69211 0.260498 0.292725 7.65988 0.292725 16.7875C0.292725 25.9151 7.69211 33.3145 16.8197 33.3145Z" fill="#252525"/>
<path d="M20.9745 17.4345H18.0254V28.2384H13.5574V17.4345H11.4324V13.6376H13.5574V11.1805C13.5574 9.42348 14.392 6.67212 18.0652 6.67212L21.3748 6.68597V10.3715H18.9735C18.5796 10.3715 18.0257 10.5683 18.0257 11.4065V13.6411H21.3648L20.9745 17.4345Z" fill="white"/>
</g>
<defs>
<clipPath id="clip0">
<rect width="33.054" height="33.054" fill="white" transform="translate(0.292725 0.260498)"/>
</clipPath>
</defs>
</svg>
