<svg width="34" height="34" viewBox="0 0 34 34" fill="none" xmlns="http://www.w3.org/2000/svg">
<g clip-path="url(#clip0)">
<ellipse cx="16.9072" cy="17.4397" rx="14.5461" ry="14.7303" fill="white"/>
<path d="M21.9737 9.66309H12.122C10.5496 9.66309 9.27026 10.9424 9.27026 12.5149V22.3665C9.27026 23.9389 10.5496 25.2186 12.122 25.2186H21.9737C23.5461 25.2186 24.8258 23.9393 24.8258 22.3665V12.5149C24.8258 10.9424 23.5465 9.66309 21.9737 9.66309ZM17.0478 22.5616C14.2244 22.5616 11.9272 20.2645 11.9272 17.4407C11.9272 14.6172 14.2244 12.3201 17.0478 12.3201C19.8716 12.3201 22.1688 14.6172 22.1688 17.4407C22.1688 20.2641 19.8713 22.5616 17.0478 22.5616ZM22.3334 13.3788C21.6651 13.3788 21.1215 12.8352 21.1215 12.1672C21.1215 11.4992 21.6651 10.9557 22.3334 10.9557C23.0015 10.9557 23.545 11.4992 23.545 12.1672C23.545 12.8352 23.0015 13.3788 22.3334 13.3788Z" fill="#252525"/>
<path d="M17.0477 14.4839C15.4178 14.4839 14.0906 15.8103 14.0906 17.4403C14.0906 19.0709 15.4178 20.3977 17.0477 20.3977C18.6783 20.3977 20.0044 19.0709 20.0044 17.4403C20.0044 15.8107 18.678 14.4839 17.0477 14.4839Z" fill="#252525"/>
<path d="M17.0477 0.869141C7.9205 0.869141 0.520752 8.26889 0.520752 17.3961C0.520752 26.5234 7.9205 33.9231 17.0477 33.9231C26.175 33.9231 33.5747 26.5234 33.5747 17.3961C33.5747 8.26889 26.175 0.869141 17.0477 0.869141ZM26.9892 22.3665C26.9892 25.1325 24.7395 27.3822 21.9735 27.3822H12.1219C9.35633 27.3822 7.10629 25.1325 7.10629 22.3665V12.5149C7.10629 9.74928 9.35633 7.49923 12.1219 7.49923H21.9735C24.7395 7.49923 26.9892 9.74928 26.9892 12.5149V22.3665Z" fill="#252525"/>
</g>
<defs>
<clipPath id="clip0">
<rect width="33.054" height="33.054" fill="white" transform="translate(0.520752 0.869141)"/>
</clipPath>
</defs>
</svg>
