<svg width="33" height="33" viewBox="0 0 33 33" fill="none" xmlns="http://www.w3.org/2000/svg">
<rect x="4" y="7" width="24" height="20" fill="white"/>
<path d="M21.8955 24.0688L24.6027 11.3072C24.8419 10.184 24.1973 9.74207 23.4606 10.0179L7.54993 16.15C6.46329 16.5731 6.48214 17.1812 7.36607 17.457L11.4357 18.7275L20.8831 12.7793C21.3251 12.4846 21.7305 12.6508 21.3993 12.9454L13.7575 19.8507L13.4628 24.0499C13.8859 24.0499 14.071 23.8661 14.2914 23.6445L16.2796 21.7293L20.4046 24.7677C21.1601 25.1908 21.694 24.9704 21.8967 24.0676L21.8955 24.0688ZM33 16.5C33 25.6151 25.6151 33 16.5 33C7.38493 33 0 25.6151 0 16.5C0 7.38493 7.38493 0 16.5 0C25.6151 0 33 7.38493 33 16.5Z" fill="#252525"/>
</svg>
