<svg width="825" height="741" viewBox="0 0 825 741" fill="none" xmlns="http://www.w3.org/2000/svg">
<g filter="url(#filter0_d)">
<path d="M20.9025 88.6546C20.9025 92.268 22.7075 94.9781 25.4149 96.7848C45.2691 105.818 69.6357 102.205 85.8801 85.9446C102.124 69.6843 105.734 45.2938 96.7097 25.4201C95.8072 21.8067 92.1974 20 89.49 20H20.9025V88.6546Z" fill="white"/>
<path d="M118.369 117.562C98.5146 137.436 73.2455 146.469 47.9765 146.469C32.6345 146.469 20 158.213 20 173.57V357.853C20 366.887 30.8296 370.5 36.2444 363.273C38.9518 359.66 41.6592 356.95 44.3666 353.336L48.8789 348.82C79.5628 318.106 129.198 314.492 170.712 337.076C176.127 340.689 183.346 336.173 184.249 329.849C186.956 294.619 201.396 260.291 228.47 233.191L238.397 223.254C265.471 196.153 299.765 181.7 334.058 178.99C340.376 178.086 343.985 171.763 341.278 165.439C318.716 123.885 322.326 75.1044 353.01 44.3905L357.522 39.8737C359.327 38.067 360.23 37.1637 362.035 35.357C369.255 30.8402 364.742 20 356.62 20H174.322C158.98 20 147.248 32.6469 147.248 47.1005C147.248 73.2977 137.321 98.5915 118.369 117.562Z" fill="white"/>
<path d="M326.839 225.964C319.619 226.867 313.302 229.577 306.984 232.287C294.35 237.707 281.715 245.838 270.886 255.774L260.959 265.711C250.129 276.552 242.007 288.295 237.494 301.845C234.787 308.169 232.982 315.396 231.177 321.719C224.86 356.046 234.787 392.18 260.959 419.281L532.601 692.093C551.553 711.063 576.822 721 602.993 721H710.387C715.802 721 719.412 717.387 719.412 711.966V593.628C719.412 567.43 708.582 542.137 690.533 523.166L423.402 255.774C397.231 229.577 360.23 219.64 326.839 225.964Z" fill="white"/>
<path d="M288.033 674.026C301.57 687.576 317.814 695.706 333.156 697.513C348.498 699.32 363.84 695.706 374.669 684.866L379.182 680.349C390.011 669.509 393.621 655.055 391.816 638.795C390.011 623.438 381.889 606.274 368.352 592.724L168.005 391.277C161.687 384.954 153.565 379.533 146.345 375.017C140.931 372.307 134.613 369.597 128.296 368.693C110.247 365.08 93.0999 368.693 81.3678 380.437L76.8555 384.954C65.1234 397.601 60.6111 414.764 65.1234 432.831C66.0259 439.155 68.7333 444.575 71.4407 450.898C75.0505 459.028 80.4653 466.255 87.6851 472.579L288.033 674.026Z" fill="white"/>
<path d="M683.313 375.92L687.825 371.403C698.655 360.563 702.265 346.109 700.46 329.849C698.655 314.492 690.533 297.329 676.996 283.778L477.55 82.3312C471.233 76.0077 463.111 70.5876 455.891 66.0709C450.476 63.3608 444.159 60.6508 437.842 59.7474C419.793 56.134 402.646 59.7474 390.914 71.491L386.401 76.0077C374.669 87.7513 371.059 105.818 374.669 122.982C375.572 129.305 378.279 134.726 380.987 141.049C384.596 149.179 390.011 156.406 397.231 162.729L598.481 364.177C612.018 377.727 628.262 385.857 643.604 387.664C658.044 390.374 673.386 386.76 683.313 375.92Z" fill="white"/>
</g>
<defs>
<filter id="filter0_d" x="0" y="0" width="845" height="741" filterUnits="userSpaceOnUse" color-interpolation-filters="sRGB">
<feFlood flood-opacity="0" result="BackgroundImageFix"/>
<feColorMatrix in="SourceAlpha" type="matrix" values="0 0 0 0 0 0 0 0 0 0 0 0 0 0 0 0 0 0 127 0"/>
<feOffset/>
<feGaussianBlur stdDeviation="10"/>
<feColorMatrix type="matrix" values="0 0 0 0 0 0 0 0 0 0 0 0 0 0 0 0 0 0 0.5 0"/>
<feBlend mode="normal" in2="BackgroundImageFix" result="effect1_dropShadow"/>
<feBlend mode="normal" in="SourceGraphic" in2="effect1_dropShadow" result="shape"/>
</filter>
</defs>
</svg>
