<svg width="22" height="21" viewBox="0 0 22 21" fill="none" xmlns="http://www.w3.org/2000/svg">
<path d="M16.6169 12.0663C16.6169 13.1748 15.7553 14.0767 14.6963 14.0767C13.6373 14.0767 12.7757 13.1748 12.7757 12.0663C12.7757 11.4993 13.0517 10.9145 13.4294 10.5263C13.4482 10.5074 13.462 10.4839 13.4695 10.458C13.4771 10.4321 13.4781 10.4047 13.4726 10.3783C13.4671 10.3518 13.4551 10.3273 13.4378 10.3069C13.4206 10.2865 13.3986 10.2709 13.3739 10.2617L13.3703 10.2603C13.3434 10.2502 13.3144 10.2479 13.2864 10.2534C13.2583 10.2591 13.2323 10.2724 13.2111 10.2921C12.9675 10.5146 12.7727 10.788 12.6396 11.0938C12.5064 11.3997 12.4379 11.7312 12.4387 12.0663C12.4387 13.3681 13.4495 14.4233 14.6963 14.4233C15.9431 14.4233 16.9538 13.3681 16.9538 12.0663C16.9539 11.8305 16.9199 11.5959 16.8528 11.3704C16.8402 11.3301 16.8127 11.2965 16.7762 11.277C16.7397 11.2575 16.6972 11.2536 16.6579 11.2662C16.6532 11.2676 16.6485 11.2689 16.6438 11.2702C16.6231 11.2758 16.6037 11.2856 16.5868 11.299C16.5698 11.3125 16.5557 11.3294 16.5453 11.3486C16.5348 11.3678 16.5283 11.389 16.526 11.4109C16.5237 11.4328 16.5258 11.455 16.5321 11.476C16.5884 11.6674 16.617 11.8664 16.6169 12.0663Z" fill="white" stroke="white" stroke-width="0.3" stroke-miterlimit="10"/>
<path d="M5.11439 12.0611C5.11439 13.1721 5.96752 14.0759 7.01617 14.0759C8.06483 14.0759 8.91796 13.1721 8.91796 12.0611C8.91796 11.4928 8.64462 10.9067 8.27066 10.5177C8.25207 10.4987 8.23839 10.4751 8.23091 10.4492C8.22343 10.4232 8.22237 10.3957 8.22786 10.3693C8.23335 10.3428 8.24521 10.3181 8.2623 10.2977C8.27938 10.2773 8.30116 10.2617 8.3256 10.2524L8.32918 10.2511C8.35574 10.2409 8.28509 10.3686 8.37168 10.315C8.39947 10.3206 8.46959 10.3691 8.49062 10.3888C8.73178 10.6119 8.92088 10.7798 9.05275 11.0864C9.18457 11.393 9.25238 11.7252 9.25159 12.0611C9.25159 13.3657 8.25074 14.4233 7.01617 14.4233C5.78161 14.4233 4.78076 13.3657 4.78076 12.0611C4.78067 11.8247 4.8144 11.5896 4.88076 11.3636C4.89324 11.3232 4.92051 11.2896 4.95663 11.27C4.99279 11.2504 5.03489 11.2465 5.0738 11.2591C5.0784 11.2605 5.08305 11.2619 5.0877 11.2632C5.10824 11.2688 5.12745 11.2786 5.14423 11.2921C5.161 11.3056 5.17495 11.3225 5.18531 11.3417C5.19566 11.361 5.20213 11.3822 5.20438 11.4042C5.2066 11.4262 5.20456 11.4483 5.19836 11.4694C5.14254 11.6613 5.11426 11.8606 5.11439 12.0611Z" fill="white" stroke="white" stroke-width="0.3" stroke-miterlimit="10"/>
<path d="M20.3954 11.0909C20.3261 11.0734 20.2566 11.0554 20.1869 11.036C20.1776 11.0334 20.169 11.0287 20.1617 11.0221C20.1544 11.0155 20.1486 11.0073 20.1448 10.9981C20.1409 10.9888 20.1391 10.9788 20.1395 10.9688C20.1399 10.9587 20.1425 10.9489 20.1471 10.9401C20.227 10.7922 20.2919 10.6361 20.3408 10.4743C20.3864 10.2909 20.3965 10.0999 20.3704 9.91253C20.3444 9.72508 20.2827 9.54492 20.1891 9.38259C20.0954 9.22026 19.9717 9.07897 19.825 8.96703C19.6784 8.8551 19.5118 8.77472 19.335 8.73059C19.1581 8.68646 18.9746 8.67952 18.7952 8.71009C18.6158 8.74071 18.444 8.8082 18.2899 8.90875C18.1359 9.00926 18.0025 9.14079 17.8978 9.2956C17.7931 9.4504 17.719 9.62538 17.6799 9.81035C17.6264 10.0499 17.6305 10.2995 17.6918 10.537C17.8681 11.174 17.9874 11.8508 17.8271 12.548C17.7557 12.8595 17.642 13.1587 17.4893 13.4367C17.4814 13.4514 17.4685 13.4625 17.4531 13.4677C17.4377 13.4729 17.4209 13.4718 17.4062 13.4647C17.3916 13.4576 17.38 13.4449 17.374 13.4293C17.3679 13.4136 17.3677 13.3962 17.3735 13.3804C17.8487 12.0779 17.5237 11.0903 17.435 10.8151L17.4348 10.8154C17.416 10.7678 17.3998 10.7197 17.3851 10.6712C17.3841 10.6686 17.3815 10.6582 17.3808 10.6556C17.2923 10.3549 17.2842 10.0349 17.3572 9.72988C17.4064 9.50074 17.4989 9.28412 17.6293 9.09258C17.7596 8.901 17.9252 8.73839 18.1164 8.61412C18.3076 8.48984 18.5207 8.40643 18.7431 8.36869C18.9656 8.331 19.193 8.33971 19.4123 8.39441C19.6315 8.44911 19.838 8.54862 20.0199 8.68723C20.2019 8.82584 20.3555 9.00078 20.4719 9.2018C20.5883 9.40282 20.6652 9.62597 20.6981 9.85824C20.731 10.0905 20.7192 10.3273 20.6635 10.5548C20.6226 10.7328 20.5559 10.9034 20.4658 11.0606C20.4586 11.0728 20.448 11.0823 20.4353 11.0878C20.4227 11.0932 20.4087 11.0943 20.3954 11.0909Z" fill="white" stroke="white" stroke-width="0.3" stroke-miterlimit="10"/>
<path d="M2.21772 15.0259C2.4758 14.4399 3.15383 14.2303 3.76633 14.4846C3.90275 14.5413 4.16304 14.6972 4.45096 15.0719C4.4591 15.0822 4.46495 15.0942 4.46809 15.1068C4.47127 15.1195 4.47167 15.1327 4.46937 15.1455C4.46703 15.1584 4.46198 15.1706 4.4545 15.1814C4.44706 15.1923 4.43737 15.2015 4.42608 15.2086C4.41223 15.2171 4.39711 15.2262 4.381 15.2357C4.36103 15.2474 4.33741 15.2519 4.31436 15.2483C4.2913 15.2447 4.27032 15.2333 4.25516 15.216C3.99677 14.9191 3.79116 14.778 3.66229 14.7245C3.45291 14.6354 3.21568 14.6305 3.00263 14.711C2.78957 14.7915 2.61809 14.9508 2.52578 15.1539C2.35305 15.5461 2.54324 16.0794 2.94915 16.2377C2.97434 16.2471 2.99526 16.2649 3.0082 16.2879C3.02113 16.3108 3.02523 16.3375 3.01976 16.3632C3.0106 16.4048 3.0004 16.446 2.98918 16.4867C2.98571 16.4995 2.97946 16.5114 2.97084 16.5216C2.96222 16.5318 2.95143 16.5401 2.93922 16.5459C2.92701 16.5517 2.91366 16.5549 2.90006 16.5552C2.88647 16.5556 2.87296 16.5531 2.86045 16.5479L2.85944 16.5475C2.56656 16.4284 2.33442 16.2011 2.21408 15.9158C2.09373 15.6304 2.09504 15.3103 2.21772 15.0259Z" fill="white" stroke="white" stroke-width="0.3" stroke-miterlimit="10"/>
<path d="M1.42341 11.0422C1.49183 11.0251 1.56044 11.0074 1.62917 10.9883C1.63837 10.9858 1.64689 10.9811 1.6541 10.9746C1.66131 10.9682 1.66702 10.9601 1.6708 10.9511C1.67459 10.942 1.67634 10.9322 1.67595 10.9223C1.67555 10.9124 1.67301 10.9028 1.66851 10.8941C1.58959 10.7489 1.5255 10.5955 1.47728 10.4365C1.43228 10.2564 1.42235 10.0688 1.44807 9.88469C1.47379 9.70059 1.53465 9.52361 1.62708 9.36413C1.71951 9.20471 1.84167 9.06592 1.98642 8.95597C2.13116 8.84598 2.2956 8.76702 2.47011 8.7237C2.64462 8.68039 2.82572 8.67354 3.00281 8.70357C3.1799 8.73364 3.34945 8.79995 3.50153 8.89869C3.65362 8.99743 3.7852 9.1266 3.88859 9.27868C3.99198 9.43072 4.0651 9.60262 4.10368 9.78432C4.15644 10.0197 4.15242 10.2648 4.09195 10.4982C3.91794 11.1238 3.80019 11.7887 3.95842 12.4736C4.02884 12.7796 4.14111 13.0736 4.29183 13.3466C4.2996 13.3611 4.31237 13.372 4.32758 13.3771C4.34278 13.3822 4.3593 13.3811 4.37378 13.3741C4.38827 13.3671 4.39966 13.3547 4.40566 13.3393C4.41165 13.324 4.41181 13.3068 4.4061 13.2913C3.9371 12.0118 4.25783 11.0416 4.34533 10.7713L4.34563 10.7715C4.36413 10.7248 4.38014 10.6775 4.39466 10.6299C4.39561 10.6274 4.39818 10.6172 4.39887 10.6146C4.48619 10.3193 4.49425 10.0049 4.42214 9.70526C4.37354 9.4802 4.28226 9.26739 4.15362 9.07925C4.02497 8.89111 3.86152 8.73137 3.67278 8.60931C3.48404 8.48726 3.27377 8.40535 3.0542 8.36829C2.83464 8.33123 2.61017 8.33985 2.39384 8.39355C2.1775 8.44726 1.97363 8.54504 1.79408 8.6812C1.61453 8.81736 1.46289 8.98913 1.34796 9.18661C1.23304 9.38405 1.15714 9.60325 1.12466 9.8314C1.09219 10.0595 1.1038 10.2921 1.15882 10.5156C1.19916 10.6905 1.26495 10.8581 1.35394 11.0125C1.36096 11.0245 1.37149 11.0338 1.38398 11.0391C1.39647 11.0445 1.41029 11.0456 1.42341 11.0422Z" fill="white" stroke="white" stroke-width="0.3" stroke-miterlimit="10"/>
<path d="M6.72827 6.59766C6.72827 3.95394 8.99193 2.49463 10.7896 2.49463C12.7203 2.49463 14.9174 3.95394 14.9174 6.59766C14.9174 9.24135 13.0842 11.3845 10.8228 11.3845C8.56149 11.3845 6.72827 9.24135 6.72827 6.59766Z" stroke="white" stroke-width="0.6" stroke-miterlimit="10"/>
<path d="M7.80331 18.056C7.76485 17.9946 7.72589 17.9332 7.68561 17.8721C7.68021 17.8639 7.67308 17.8571 7.66476 17.8522C7.65644 17.8472 7.64715 17.8443 7.63754 17.8436C7.62798 17.8428 7.61833 17.8443 7.60943 17.848C7.60049 17.8516 7.59243 17.8573 7.58593 17.8646C7.47867 17.9897 7.35902 18.1029 7.22892 18.2024C7.07838 18.3057 6.90933 18.3771 6.73164 18.4125C6.55396 18.4479 6.37123 18.4464 6.19408 18.4083C6.01697 18.3701 5.84899 18.296 5.69999 18.1904C5.55099 18.0847 5.42399 17.9495 5.32634 17.7928C5.22869 17.636 5.16238 17.4608 5.13131 17.2774C5.10019 17.094 5.10497 16.9061 5.1453 16.7245C5.18558 16.543 5.26065 16.3716 5.36609 16.2203C5.47153 16.069 5.60522 15.9408 5.75935 15.8433C5.9581 15.7141 6.1847 15.6375 6.41908 15.62C7.05159 15.5847 7.70146 15.4815 8.27824 15.1012C8.53604 14.9316 8.76892 14.7249 8.96985 14.4874C8.98056 14.475 8.98631 14.4589 8.986 14.4423C8.98565 14.4257 8.97919 14.4099 8.96799 14.398C8.95674 14.3861 8.94152 14.3791 8.92545 14.3783C8.90934 14.3774 8.89353 14.3829 8.88118 14.3936C7.86108 15.2739 6.86338 15.2787 6.5861 15.2818L6.58619 15.2815C6.53714 15.2788 6.4884 15.2786 6.43984 15.28C6.43723 15.2799 6.42696 15.2808 6.42435 15.2809C6.1241 15.2925 5.83261 15.388 5.58118 15.5572C5.39053 15.6788 5.22528 15.8382 5.09505 16.0262C4.96482 16.2141 4.87222 16.4268 4.82264 16.6519C4.77302 16.877 4.76744 17.11 4.80618 17.3373C4.84491 17.5647 4.9272 17.7818 5.04822 17.9761C5.16929 18.1705 5.32665 18.338 5.51128 18.4692C5.69587 18.6004 5.90396 18.6925 6.12343 18.7402C6.34295 18.7878 6.5695 18.7902 6.78985 18.7469C7.01021 18.7038 7.22003 18.6158 7.40714 18.4885C7.5545 18.3914 7.68663 18.2718 7.79902 18.1338C7.8077 18.123 7.81279 18.1096 7.81354 18.0957C7.81434 18.0816 7.81075 18.0678 7.80331 18.056Z" fill="white" stroke="white" stroke-width="0.3" stroke-miterlimit="10"/>
<path d="M14.1207 17.9577C14.1595 17.8957 14.1989 17.8336 14.2397 17.7719C14.2451 17.7636 14.2523 17.7568 14.2607 17.7518C14.2691 17.7468 14.2785 17.7438 14.2882 17.7431C14.2979 17.7424 14.3076 17.7439 14.3166 17.7475C14.3257 17.7512 14.3338 17.7569 14.3404 17.7643C14.4487 17.8907 14.5697 18.0051 14.7011 18.1056C14.8533 18.21 15.0241 18.2821 15.2036 18.3179C15.3832 18.3536 15.5679 18.3521 15.7469 18.3136C15.9259 18.2751 16.0956 18.2002 16.2462 18.0935C16.3967 17.9867 16.5251 17.8501 16.6238 17.6918C16.7224 17.5334 16.7895 17.3564 16.8209 17.1711C16.8523 16.9858 16.8475 16.7959 16.8067 16.6125C16.766 16.4292 16.6901 16.2559 16.5836 16.1031C16.477 15.9502 16.3419 15.8207 16.1862 15.7221C15.9854 15.5917 15.7564 15.5142 15.5195 15.4965C14.8803 15.461 14.2236 15.3566 13.6408 14.9724C13.3802 14.801 13.1449 14.5922 12.9419 14.3523C12.931 14.3398 12.9252 14.3235 12.9256 14.3068C12.9259 14.29 12.9324 14.274 12.9438 14.262C12.9551 14.25 12.9705 14.2428 12.9868 14.242C13.003 14.2412 13.019 14.2467 13.0315 14.2575C14.0623 15.1469 15.0705 15.1518 15.3507 15.155L15.3506 15.1546C15.4002 15.1518 15.4495 15.1517 15.4985 15.1531C15.5012 15.153 15.5116 15.1539 15.5142 15.1541C15.8176 15.1657 16.1122 15.2622 16.3662 15.4331C16.5589 15.556 16.7259 15.7171 16.8575 15.907C16.989 16.0968 17.0826 16.3117 17.1327 16.5391C17.1828 16.7665 17.1885 17.0019 17.1494 17.2316C17.1102 17.4613 17.0271 17.6807 16.9048 17.877C16.7825 18.0733 16.6234 18.2426 16.4369 18.3752C16.2503 18.5077 16.04 18.6007 15.8183 18.6489C15.5965 18.6971 15.3675 18.6994 15.1449 18.6557C14.9222 18.6121 14.7101 18.5234 14.5211 18.3946C14.3722 18.2966 14.2386 18.1758 14.1251 18.0364C14.1163 18.0254 14.1111 18.0119 14.1104 17.9978C14.1096 17.9836 14.1132 17.9696 14.1207 17.9577Z" fill="white" stroke="white" stroke-width="0.3" stroke-miterlimit="10"/>
<path d="M12.5772 12.9914C12.5635 12.9636 12.5486 12.9364 12.5324 12.9099C12.4308 12.6375 12.1926 12.3238 11.884 12.0781C11.5804 11.8362 11.2062 11.6581 10.823 11.6514V11.498C11.2819 11.5049 11.7185 11.7254 12.0604 12.019C12.3993 12.31 12.642 12.6701 12.7212 12.9591L12.5772 12.9914Z" fill="white" stroke="white" stroke-width="0.1"/>
<path d="M9.15698 12.9911C9.17061 12.9634 9.18553 12.9361 9.20169 12.9096C9.30332 12.6373 9.54156 12.3236 9.85009 12.0778C10.1537 11.836 10.528 11.6579 10.9111 11.6512V11.4978C10.4522 11.5047 10.0156 11.7251 9.67374 12.0188C9.33488 12.3097 9.09217 12.6698 9.01294 12.9589L9.15698 12.9911Z" fill="white" stroke="white" stroke-width="0.1"/>
<path d="M9.6077 12.0332L9.1584 12.6544L9.03003 11.0669L10.3137 11.55L9.6077 12.0332Z" fill="white"/>
<path d="M12.0868 12.051L12.567 12.6544L12.7043 11.1123L11.332 11.5817L12.0868 12.051Z" fill="white"/>
<path d="M19.3856 14.8982C19.1324 14.2634 18.4672 14.0363 17.8663 14.3119C17.7324 14.3732 17.477 14.5421 17.1946 14.948C17.1866 14.9593 17.1808 14.9722 17.1777 14.9859C17.1746 14.9996 17.1742 15.0139 17.1765 15.0278C17.1788 15.0417 17.1838 15.055 17.1911 15.0667C17.1984 15.0785 17.2078 15.0885 17.219 15.0961C17.2325 15.1053 17.2474 15.1152 17.2632 15.1255C17.2828 15.1382 17.3059 15.1431 17.3286 15.1392C17.3512 15.1353 17.3718 15.1229 17.3866 15.1042C17.6401 14.7826 17.8419 14.6297 17.9683 14.5717C18.1738 14.4752 18.4065 14.4699 18.6155 14.5571C18.8246 14.6443 18.9929 14.8168 19.0834 15.0368C19.2529 15.4617 19.0662 16.0396 18.668 16.211C18.6433 16.2212 18.6228 16.2404 18.6101 16.2653C18.5974 16.2902 18.5934 16.3192 18.5987 16.3469C18.6077 16.392 18.6177 16.4366 18.6287 16.4808C18.6321 16.4946 18.6383 16.5075 18.6467 16.5185C18.6552 16.5296 18.6658 16.5386 18.6778 16.5449C18.6897 16.5512 18.7028 16.5546 18.7162 16.555C18.7295 16.5554 18.7428 16.5527 18.7551 16.5471L18.756 16.5467C19.0434 16.4176 19.2712 16.1714 19.3892 15.8622C19.5073 15.5531 19.506 15.2063 19.3856 14.8982Z" fill="white" stroke="white" stroke-width="0.3" stroke-miterlimit="10"/>
</svg>
